<svg width="24" height="25" viewBox="0 0 24 25" fill="none" xmlns="http://www.w3.org/2000/svg">
<g id="account_circle">
<mask id="mask0_1_166" style="mask-type:alpha" maskUnits="userSpaceOnUse" x="0" y="0" width="24" height="25">
<rect id="Bounding box" y="0.876881" width="24" height="24" fill="#D9D9D9"/>
</mask>
<g mask="url(#mask0_1_166)">
<path id="account_circle_2" d="M6.023 18.1691C6.873 17.5385 7.799 17.0404 8.801 16.6749C9.80283 16.3095 10.8692 16.1269 12 16.1269C13.1308 16.1269 14.1972 16.3095 15.199 16.6749C16.201 17.0404 17.127 17.5385 17.977 18.1691C18.5987 17.4858 19.0912 16.6948 19.4548 15.7961C19.8183 14.8975 20 13.9244 20 12.8769C20 10.6602 19.2208 8.77271 17.6625 7.21438C16.1042 5.65605 14.2167 4.87688 12 4.87688C9.78333 4.87688 7.89583 5.65605 6.3375 7.21438C4.77917 8.77271 4 10.6602 4 12.8769C4 13.9244 4.18175 14.8975 4.54525 15.7961C4.90875 16.6948 5.40133 17.4858 6.023 18.1691ZM12.0003 13.6269C11.0873 13.6269 10.3173 13.3135 9.6905 12.6869C9.0635 12.06 8.75 11.2901 8.75 10.3771C8.75 9.46413 9.06333 8.69421 9.69 8.06738C10.3168 7.44038 11.0868 7.12688 11.9998 7.12688C12.9128 7.12688 13.6827 7.44021 14.3095 8.06688C14.9365 8.69371 15.25 9.46363 15.25 10.3766C15.25 11.2896 14.9367 12.0595 14.31 12.6864C13.6832 13.3134 12.9133 13.6269 12.0003 13.6269ZM12 22.3769C10.6808 22.3769 9.44333 22.1288 8.2875 21.6326C7.13167 21.1365 6.12625 20.4608 5.27125 19.6056C4.41608 18.7506 3.74042 17.7452 3.24425 16.5894C2.74808 15.4335 2.5 14.196 2.5 12.8769C2.5 11.5577 2.74808 10.3202 3.24425 9.16438C3.74042 8.00855 4.41608 7.00313 5.27125 6.14813C6.12625 5.29296 7.13167 4.6173 8.2875 4.12113C9.44333 3.62496 10.6808 3.37688 12 3.37688C13.3192 3.37688 14.5567 3.62496 15.7125 4.12113C16.8683 4.6173 17.8738 5.29296 18.7288 6.14813C19.5839 7.00313 20.2596 8.00855 20.7558 9.16438C21.2519 10.3202 21.5 11.5577 21.5 12.8769C21.5 14.196 21.2519 15.4335 20.7558 16.5894C20.2596 17.7452 19.5839 18.7506 18.7288 19.6056C17.8738 20.4608 16.8683 21.1365 15.7125 21.6326C14.5567 22.1288 13.3192 22.3769 12 22.3769ZM12 20.8769C12.9025 20.8769 13.7727 20.7317 14.6105 20.4414C15.4483 20.1509 16.1923 19.7448 16.8422 19.2231C16.1923 18.7205 15.458 18.3288 14.6395 18.0481C13.8208 17.7673 12.941 17.6269 12 17.6269C11.059 17.6269 10.1776 17.7656 9.35575 18.0431C8.53392 18.3208 7.80125 18.7141 7.15775 19.2231C7.80775 19.7448 8.55167 20.1509 9.3895 20.4414C10.2273 20.7317 11.0975 20.8769 12 20.8769ZM12 12.1269C12.4975 12.1269 12.9135 11.9595 13.248 11.6249C13.5827 11.2904 13.75 10.8744 13.75 10.3769C13.75 9.87938 13.5827 9.46338 13.248 9.12888C12.9135 8.79421 12.4975 8.62688 12 8.62688C11.5025 8.62688 11.0865 8.79421 10.752 9.12888C10.4173 9.46338 10.25 9.87938 10.25 10.3769C10.25 10.8744 10.4173 11.2904 10.752 11.6249C11.0865 11.9595 11.5025 12.1269 12 12.1269Z" fill="#212121"/>
</g>
</g>
</svg>
