<svg width="24" height="25" viewBox="0 0 24 25" fill="none" xmlns="http://www.w3.org/2000/svg">
<mask id="mask0_1_169" style="mask-type:alpha" maskUnits="userSpaceOnUse" x="0" y="0" width="24" height="25">
<rect y="0.876881" width="24" height="24" fill="#D9D9D9"/>
</mask>
<g mask="url(#mask0_1_169)">
<path d="M12 21.2036L10.8963 20.2114C9.23858 18.7075 7.86775 17.4153 6.78375 16.3346C5.69975 15.2538 4.84075 14.2919 4.20675 13.4489C3.57275 12.606 3.12983 11.8371 2.878 11.1421C2.626 10.4473 2.5 9.74222 2.5 9.02688C2.5 7.60772 2.9785 6.41955 3.9355 5.46238C4.89267 4.50538 6.08083 4.02688 7.5 4.02688C8.373 4.02688 9.198 4.23105 9.975 4.63938C10.752 5.04772 11.427 5.6333 12 6.39613C12.573 5.6333 13.248 5.04772 14.025 4.63938C14.802 4.23105 15.627 4.02688 16.5 4.02688C17.9192 4.02688 19.1073 4.50538 20.0645 5.46238C21.0215 6.41955 21.5 7.60772 21.5 9.02688C21.5 9.74222 21.374 10.4473 21.122 11.1421C20.8702 11.8371 20.4272 12.606 19.7932 13.4489C19.1592 14.2919 18.3018 15.2538 17.221 16.3346C16.1403 17.4153 14.7679 18.7075 13.1038 20.2114L12 21.2036ZM12 19.1769C13.6 17.7372 14.9167 16.5032 15.95 15.4749C16.9833 14.4467 17.8 13.5535 18.4 12.7951C19 12.0368 19.4167 11.3634 19.65 10.7749C19.8833 10.1865 20 9.60388 20 9.02688C20 8.02688 19.6667 7.19355 19 6.52688C18.3333 5.86022 17.5 5.52688 16.5 5.52688C15.7103 5.52688 14.9805 5.75088 14.3105 6.19888C13.6407 6.64705 13.1102 7.27047 12.7192 8.06913H11.2808C10.8833 7.26397 10.3512 6.63897 9.6845 6.19413C9.01783 5.7493 8.28967 5.52688 7.5 5.52688C6.50633 5.52688 5.67458 5.86022 5.00475 6.52688C4.33492 7.19355 4 8.02688 4 9.02688C4 9.60388 4.11667 10.1865 4.35 10.7749C4.58333 11.3634 5 12.0368 5.6 12.7951C6.2 13.5535 7.01667 14.4451 8.05 15.4701C9.08333 16.4951 10.4 17.7307 12 19.1769Z" fill="#212121"/>
</g>
</svg>
