<svg width="200" height="200" viewBox="0 0 200 200" fill="none" xmlns="http://www.w3.org/2000/svg">
  <rect width="200" height="200" fill="white"/>
  <path fill-rule="evenodd" clip-rule="evenodd" d="M40 40H80V80H40V40ZM50 50H70V70H50V50Z" fill="black"/>
  <path fill-rule="evenodd" clip-rule="evenodd" d="M120 40H160V80H120V40ZM130 50H150V70H130V50Z" fill="black"/>
  <path fill-rule="evenodd" clip-rule="evenodd" d="M40 120H80V160H40V120ZM50 130H70V150H50V130Z" fill="black"/>
  <rect x="90" y="40" width="20" height="20" fill="black"/>
  <rect x="40" y="90" width="20" height="20" fill="black"/>
  <rect x="140" y="90" width="20" height="20" fill="black"/>
  <rect x="90" y="140" width="20" height="20" fill="black"/>
  <rect x="120" y="120" width="40" height="40" fill="black"/>
</svg> 