<svg width="24" height="25" viewBox="0 0 24 25" fill="none" xmlns="http://www.w3.org/2000/svg">
<g id="search">
<mask id="mask0_3_264" style="mask-type:alpha" maskUnits="userSpaceOnUse" x="0" y="0" width="24" height="25">
<rect id="Bounding box" y="0.876881" width="24" height="24" fill="#D9D9D9"/>
</mask>
<g mask="url(#mask0_3_264)">
<path id="search_2" d="M19.6 21.8769L13.3 15.5769C12.8 15.9769 12.225 16.2935 11.575 16.5269C10.925 16.7602 10.2333 16.8769 9.5 16.8769C7.68333 16.8769 6.14583 16.2477 4.8875 14.9894C3.62917 13.731 3 12.1935 3 10.3769C3 8.56021 3.62917 7.02271 4.8875 5.76438C6.14583 4.50605 7.68333 3.87688 9.5 3.87688C11.3167 3.87688 12.8542 4.50605 14.1125 5.76438C15.3708 7.02271 16 8.56021 16 10.3769C16 11.1102 15.8833 11.8019 15.65 12.4519C15.4167 13.1019 15.1 13.6769 14.7 14.1769L21 20.4769L19.6 21.8769ZM9.5 14.8769C10.75 14.8769 11.8125 14.4394 12.6875 13.5644C13.5625 12.6894 14 11.6269 14 10.3769C14 9.12688 13.5625 8.06438 12.6875 7.18938C11.8125 6.31438 10.75 5.87688 9.5 5.87688C8.25 5.87688 7.1875 6.31438 6.3125 7.18938C5.4375 8.06438 5 9.12688 5 10.3769C5 11.6269 5.4375 12.6894 6.3125 13.5644C7.1875 14.4394 8.25 14.8769 9.5 14.8769Z" fill="#212121"/>
</g>
</g>
</svg>
