<svg width="24" height="25" viewBox="0 0 24 25" fill="none" xmlns="http://www.w3.org/2000/svg">
<g id="shopping_bag">
<mask id="mask0_3_253" style="mask-type:alpha" maskUnits="userSpaceOnUse" x="0" y="0" width="24" height="25">
<rect id="Bounding box" y="0.876881" width="24" height="24" fill="#D9D9D9"/>
</mask>
<g mask="url(#mask0_3_253)">
<path id="shopping_bag_2" d="M6 22.8769C5.45 22.8769 4.97917 22.681 4.5875 22.2894C4.19583 21.8977 4 21.4269 4 20.8769V8.87688C4 8.32688 4.19583 7.85605 4.5875 7.46438C4.97917 7.07271 5.45 6.87688 6 6.87688H8C8 5.77688 8.39167 4.83521 9.175 4.05188C9.95833 3.26855 10.9 2.87688 12 2.87688C13.1 2.87688 14.0417 3.26855 14.825 4.05188C15.6083 4.83521 16 5.77688 16 6.87688H18C18.55 6.87688 19.0208 7.07271 19.4125 7.46438C19.8042 7.85605 20 8.32688 20 8.87688V20.8769C20 21.4269 19.8042 21.8977 19.4125 22.2894C19.0208 22.681 18.55 22.8769 18 22.8769H6ZM6 20.8769H18V8.87688H16V10.8769C16 11.1602 15.9042 11.3977 15.7125 11.5894C15.5208 11.781 15.2833 11.8769 15 11.8769C14.7167 11.8769 14.4792 11.781 14.2875 11.5894C14.0958 11.3977 14 11.1602 14 10.8769V8.87688H10V10.8769C10 11.1602 9.90417 11.3977 9.7125 11.5894C9.52083 11.781 9.28333 11.8769 9 11.8769C8.71667 11.8769 8.47917 11.781 8.2875 11.5894C8.09583 11.3977 8 11.1602 8 10.8769V8.87688H6V20.8769ZM10 6.87688H14C14 6.32688 13.8042 5.85605 13.4125 5.46438C13.0208 5.07271 12.55 4.87688 12 4.87688C11.45 4.87688 10.9792 5.07271 10.5875 5.46438C10.1958 5.85605 10 6.32688 10 6.87688Z" fill="#212121"/>
</g>
</g>
</svg>
