<svg width="66" height="64" viewBox="0 0 66 64" fill="none" xmlns="http://www.w3.org/2000/svg">
<path d="M35.0724 25.6233L30.6086 21.1595L35.6303 16.0581H22.3188V9.68128H35.6303L30.5289 4.57984L35.0724 0.116089L47.8259 12.8697L35.0724 25.6233ZM19.1304 63.884C17.3768 63.884 15.8756 63.2596 14.6268 62.0108C13.378 60.762 12.7536 59.2608 12.7536 57.5072C12.7536 55.7536 13.378 54.2524 14.6268 53.0036C15.8756 51.7548 17.3768 51.1304 19.1304 51.1304C20.884 51.1304 22.3852 51.7548 23.634 53.0036C24.8828 54.2524 25.5072 55.7536 25.5072 57.5072C25.5072 59.2608 24.8828 60.762 23.634 62.0108C22.3852 63.2596 20.884 63.884 19.1304 63.884ZM51.0143 63.884C49.2607 63.884 47.7595 63.2596 46.5107 62.0108C45.2619 60.762 44.6375 59.2608 44.6375 57.5072C44.6375 55.7536 45.2619 54.2524 46.5107 53.0036C47.7595 51.7548 49.2607 51.1304 51.0143 51.1304C52.768 51.1304 54.2692 51.7548 55.518 53.0036C56.7667 54.2524 57.3911 55.7536 57.3911 57.5072C57.3911 59.2608 56.7667 60.762 55.518 62.0108C54.2692 63.2596 52.768 63.884 51.0143 63.884ZM0 6.49288V0.116089H10.442L23.9927 28.8117H46.3115L58.7462 6.49288H65.9998L51.9709 31.8406C51.3863 32.9034 50.6025 33.7271 49.6194 34.3116C48.6363 34.8962 47.5602 35.1884 46.3912 35.1884H22.6376L19.1304 41.5652H57.3911V47.942H19.1304C16.7391 47.942 14.919 46.9058 13.6702 44.8333C12.4215 42.7609 12.3816 40.6619 13.5507 38.5363L17.855 30.7247L6.37679 6.49288H0Z" fill="white"/>
</svg>
