<svg width="104" height="38" viewBox="0 0 104 38" fill="none" xmlns="http://www.w3.org/2000/svg">
<path d="M1.38059 37.7538H0.849593L2.76117 2.54878C2.81427 1.43369 2.07088 0.424797 0 0.424797V0H8.81452V0.424797C7.11534 0.424797 5.84095 1.16819 5.78785 2.28328L4.14176 32.4438L21.9301 3.87627C23.2045 1.80538 22.1425 0.424797 19.222 0.424797V0H28.4613V0.424797C26.2843 0.424797 23.6293 1.91158 22.4611 3.82316L1.38059 37.7538Z" fill="white"/>
<path d="M18.4238 34.8864L31.5925 3.87627C32.7076 1.27439 32.2828 0.424797 29.8402 0.424797V0H50.9738L49.4339 8.92072H49.0091C49.487 5.46925 49.6463 0.424797 43.9116 0.424797H36.2652L29.4154 16.514H35.0971C39.1326 16.514 41.0973 15.0803 43.1151 11.0978H43.5399L38.814 22.3549H38.3892C39.7167 18.6379 38.8671 16.9387 34.9909 16.9387H29.2561L20.5478 37.329H29.2561C33.3448 37.329 37.221 35.1519 41.9469 29.0985H42.4248L36.7962 37.7538H14.5475V37.329C16.8308 37.329 17.5742 36.8511 18.4238 34.8864Z" fill="white"/>
<path d="M64.0366 0.424797C57.7709 0.424797 54.4787 5.57545 52.514 8.65522H52.0361L56.1248 0H76.515L47.5758 37.329H58.3019C64.5676 37.329 67.8598 32.1783 69.8245 29.0985H70.3024L66.2137 37.7538H43.4871L72.4264 0.424797H64.0366Z" fill="white"/>
<path d="M91.3878 0.424797C85.122 0.424797 81.8299 5.57545 79.8652 8.65522H79.3873L83.476 0H103.866L74.9269 37.329H85.653C91.9188 37.329 95.211 32.1783 97.1756 29.0985H97.6535L93.5649 37.7538H70.8383L99.7775 0.424797H91.3878Z" fill="white"/>
</svg> 