<svg width="24" height="25" viewBox="0 0 24 25" fill="none" xmlns="http://www.w3.org/2000/svg">
<g id="favorite">
<mask id="mask0_8_46" style="mask-type:alpha" maskUnits="userSpaceOnUse" x="0" y="0" width="24" height="25">
<rect id="Bounding box" y="0.246216" width="24" height="24" fill="#D9D9D9"/>
</mask>
<g mask="url(#mask0_8_46)">
<path id="favorite_2" d="M12 21.2462L10.55 19.9462C8.86667 18.4296 7.475 17.1212 6.375 16.0212C5.275 14.9212 4.4 13.9337 3.75 13.0587C3.1 12.1837 2.64583 11.3796 2.3875 10.6462C2.12917 9.91291 2 9.16291 2 8.39624C2 6.82957 2.525 5.52124 3.575 4.47124C4.625 3.42124 5.93333 2.89624 7.5 2.89624C8.36667 2.89624 9.19167 3.07957 9.975 3.44624C10.7583 3.81291 11.4333 4.32957 12 4.99624C12.5667 4.32957 13.2417 3.81291 14.025 3.44624C14.8083 3.07957 15.6333 2.89624 16.5 2.89624C18.0667 2.89624 19.375 3.42124 20.425 4.47124C21.475 5.52124 22 6.82957 22 8.39624C22 9.16291 21.8708 9.91291 21.6125 10.6462C21.3542 11.3796 20.9 12.1837 20.25 13.0587C19.6 13.9337 18.725 14.9212 17.625 16.0212C16.525 17.1212 15.1333 18.4296 13.45 19.9462L12 21.2462ZM12 18.5462C13.6 17.1129 14.9167 15.8837 15.95 14.8587C16.9833 13.8337 17.8 12.9421 18.4 12.1837C19 11.4254 19.4167 10.7504 19.65 10.1587C19.8833 9.56707 20 8.97957 20 8.39624C20 7.39624 19.6667 6.56291 19 5.89624C18.3333 5.22957 17.5 4.89624 16.5 4.89624C15.7167 4.89624 14.9917 5.11707 14.325 5.55874C13.6583 6.00041 13.2 6.56291 12.95 7.24624H11.05C10.8 6.56291 10.3417 6.00041 9.675 5.55874C9.00833 5.11707 8.28333 4.89624 7.5 4.89624C6.5 4.89624 5.66667 5.22957 5 5.89624C4.33333 6.56291 4 7.39624 4 8.39624C4 8.97957 4.11667 9.56707 4.35 10.1587C4.58333 10.7504 5 11.4254 5.6 12.1837C6.2 12.9421 7.01667 13.8337 8.05 14.8587C9.08333 15.8837 10.4 17.1129 12 18.5462Z" fill="#A41212"/>
</g>
</g>
</svg>
